<?xml version="1.0"?>
<svg xmlns="http://www.w3.org/2000/svg" viewBox="0 0 64 64" width="512" height="512"><g id="Agree"><path d="M61,38H56V11a3,3,0,0,0-3-3H15.92A7,7,0,0,0,2,9V47a7.008,7.008,0,0,0,7,7H20.556a4,4,0,0,0,.826,1A3.983,3.983,0,0,0,24,62H49a.9.9,0,0,0,.164-.014l12-2A1,1,0,0,0,62,59V39A1,1,0,0,0,61,38ZM4,9A5,5,0,0,1,14,9v33.1a6.991,6.991,0,0,0-10,0ZM20,52H9a5,5,0,1,1,5-5,1,1,0,0,0,2,0V10H53a1,1,0,0,1,1,1V38H51a5.006,5.006,0,0,1-5-5V25a5,5,0,0,0-10,0V36H24a3.983,3.983,0,0,0-2.618,7,3.947,3.947,0,0,0,0,6A3.975,3.975,0,0,0,20,52Zm40,6.153L48.917,60H24a2,2,0,0,1,0-4H35V54H24a2,2,0,0,1,0-4H35V48H24a2,2,0,0,1,0-4H35V42H24a2,2,0,0,1,0-4H37a1,1,0,0,0,1-1V25a3,3,0,0,1,6,0v8a7.008,7.008,0,0,0,7,7h9Z"/><path d="M21,30H33a1,1,0,0,0,1-1V19.707l5.521-5.521-1.415-1.414L33.98,16.9A.991.991,0,0,0,33,16H21a1,1,0,0,0-1,1V29A1,1,0,0,0,21,30Zm1-12H32v.879l-4.5,4.5-2.121-2.122-1.414,1.414L26.793,25.5a1,1,0,0,0,1.414,0L32,21.707V28H22Z"/></g></svg>
