<svg id="Layer_1" enable-background="new 0 0 512 512" height="512" viewBox="0 0 512 512" width="512" xmlns="http://www.w3.org/2000/svg"><g><path d="m414.996 55.632-133.445 96.954 223.595 162.453c4.474-18.923 6.854-38.646 6.854-58.916 0-81.129-37.942-153.555-97.004-200.491z"/><path d="m388.984 37.449c-38.782-23.673-84.318-37.327-132.984-37.327-52.302 0-100.982 15.778-141.555 42.807l50.996 156.936z"/><path d="m89.141 62.132c-54.546 46.983-89.141 116.52-89.141 193.99 0 23.805 3.278 46.856 9.385 68.739h165.129z"/><path d="m19.817 354.862c37.401 89.128 123.835 152.773 225.365 157.016l51.017-157.016z"/><path d="m276.925 511.262c100.648-8.181 185.011-74.829 218.996-165.845l-133.577-97.05z"/></g></svg>