<?xml version="1.0" encoding="iso-8859-1"?>
<!-- Generator: Adobe Illustrator 19.0.0, SVG Export Plug-In . SVG Version: 6.00 Build 0)  -->
<svg version="1.1" id="Capa_1" xmlns="http://www.w3.org/2000/svg" xmlns:xlink="http://www.w3.org/1999/xlink" x="0px" y="0px"
	 viewBox="0 0 512.008 512.008" style="enable-background:new 0 0 512.008 512.008;" xml:space="preserve">
<g>
	<path style="fill:#455A64;" d="M252.885,259.123l-42.667-42.667c-4.165-4.164-10.917-4.164-15.083,0l-42.667,42.667
		c-4.164,4.165-4.164,10.917,0,15.083l42.667,42.667c4.165,4.164,10.917,4.164,15.083,0l42.667-42.667
		C257.049,270.04,257.049,263.288,252.885,259.123z"/>
	<path style="fill:#455A64;" d="M466.219,45.79L423.552,3.123c-4.165-4.164-10.917-4.164-15.083,0L365.803,45.79
		c-4.164,4.165-4.164,10.917,0,15.083l42.667,42.667c4.165,4.164,10.917,4.164,15.083,0l42.667-42.667
		C470.383,56.707,470.383,49.955,466.219,45.79z"/>
</g>
<path style="fill:#90A4AE;" d="M444.885,109.79l-85.333-85.333c-4.165-4.164-10.917-4.164-15.083,0L173.803,195.123
	c-4.164,4.165-4.164,10.917,0,15.083l85.333,85.333c4.165,4.164,10.917,4.164,15.083,0l58.283-58.283
	c4.164-4.165,4.164-10.917,0-15.083c-16.949-16.37-17.419-43.381-1.048-60.331c16.37-16.949,43.381-17.419,60.331-1.049
	c0.356,0.343,0.705,0.693,1.048,1.049c4.165,4.164,10.917,4.164,15.083,0l36.949-36.949c4.177-4.154,4.195-10.908,0.04-15.085
	C444.898,109.802,444.892,109.796,444.885,109.79z"/>
<path style="fill:#455A64;" d="M437.333,426.675h-5.653c52.948-73.936,49.784-174.181-7.723-244.629
	c-3.715-4.572-10.433-5.268-15.005-1.553c-2.684,2.18-4.144,5.526-3.918,8.977l0.299,2.539
	c-0.089,19.342-13.178,36.204-31.893,41.088c-5.695,1.507-9.09,7.345-7.583,13.04c0.26,0.981,0.658,1.92,1.183,2.789
	c33.52,55.279,15.881,127.265-39.398,160.786c-18.382,11.146-39.478,17.015-60.975,16.964c-28.035,1.015-55.729-6.417-79.488-21.333
	h58.155c5.891,0,10.667-4.776,10.667-10.667v-42.667c0-5.891-4.776-10.667-10.667-10.667h-192c-5.891,0-10.667,4.776-10.667,10.667
	v42.667c0,5.891,4.776,10.667,10.667,10.667h26.453c10.929,24.081,27.46,45.199,48.213,61.589v34.411
	c0,5.891,4.776,10.667,10.667,10.667h298.667c5.891,0,10.667-4.776,10.667-10.667v-64C448,431.451,443.224,426.675,437.333,426.675z
	"/>
<circle style="fill:#607D8B;" cx="362.667" cy="192.008" r="64"/>
<g>
</g>
<g>
</g>
<g>
</g>
<g>
</g>
<g>
</g>
<g>
</g>
<g>
</g>
<g>
</g>
<g>
</g>
<g>
</g>
<g>
</g>
<g>
</g>
<g>
</g>
<g>
</g>
<g>
</g>
</svg>
