<svg id="Layer_3" enable-background="new 0 0 64 64" height="512" viewBox="0 0 64 64" width="512" xmlns="http://www.w3.org/2000/svg"><g><path d="m61.465 54.051-17.758-17.758c-.128-.128-.289-.219-.465-.263l-.242-.06v-33.97c0-.552-.447-1-1-1h-28c-.266 0-.52.105-.707.293l-12 12c-.188.187-.293.442-.293.707v38c0 .553.447 1 1 1h40c.553 0 1-.447 1-1v-1.586l11.051 11.051c.99.99 2.307 1.535 3.707 1.535 2.89 0 5.242-2.352 5.242-5.242 0-1.401-.545-2.717-1.535-3.707zm-19.917-16.383-1.293 2.587-2.587 1.293-1.294-5.174zm-.745 4.549 13.783 13.783-1.586 1.586-14.311-14.312zm15.197 12.369-13.783-13.783 1.057-2.114 14.312 14.311zm-43-50.172v8.586h-8.586zm28 46.586h-38v-36h11c.553 0 1-.448 1-1v-11h26v32.47l-5.758-1.439c-.339-.086-.701.015-.949.263s-.349.608-.263.949l2 8c.044.176.135.337.263.465l4.707 4.706zm16.758 10c-.866 0-1.681-.337-2.293-.949l-1.051-1.051 4.586-4.586 1.051 1.051c.612.612.949 1.427.949 2.293 0 1.788-1.454 3.242-3.242 3.242z"/><path d="m26.393 41.858-3.822-.764-1.299-1.733c-1.11-1.478-2.876-2.361-4.724-2.361h-3.923c-1.979 0-3.814.982-4.913 2.629-.287.432-.651.796-1.083 1.083l-2.184 1.456c-.278.186-.445.498-.445.832v3c0 1.103.897 2 2 2h1.184c.414 1.161 1.514 2 2.816 2s2.402-.839 2.816-2h6.369c.414 1.161 1.514 2 2.816 2s2.402-.839 2.816-2h1.183c1.103 0 2-.897 2-2v-2.181c0-.949-.676-1.773-1.607-1.961zm-16.393 6.142c-.552 0-1-.448-1-1s.448-1 1-1 1 .448 1 1-.448 1-1 1zm12 0c-.552 0-1-.448-1-1s.448-1 1-1 1 .448 1 1-.448 1-1 1zm4-2h-1.184c-.414-1.161-1.514-2-2.816-2s-2.402.839-2.816 2h-6.369c-.414-1.161-1.514-2-2.816-2s-2.402.839-2.816 2h-1.183v-2.465l1.738-1.159c.652-.435 1.203-.985 1.638-1.638.727-1.088 1.94-1.738 3.249-1.738h3.923c1.223 0 2.391.584 3.124 1.562l1.528 2.038c.147.197.362.333.604.381l4.196.838z"/><path d="m31 33h2v2h-2z"/><path d="m10 33h19v2h-19z"/><path d="m10 29h2v2h-2z"/><path d="m14 29h19v2h-19z"/><path d="m30 15h8c.553 0 1-.448 1-1v-8c0-.552-.447-1-1-1h-8c-.553 0-1 .448-1 1v8c0 .552.447 1 1 1zm1-8h4.382l-1.506 3.012-1.044-1.566-1.664 1.109 2 3c.186.279.499.445.832.445.021 0 .041 0 .062-.002.355-.022.673-.232.832-.551l2.106-4.211v4.764h-3-3z"/><path d="m30 27h8c.553 0 1-.448 1-1v-8c0-.552-.447-1-1-1h-8c-.553 0-1 .448-1 1v8c0 .552.447 1 1 1zm1-8h4.382l-1.506 3.012-1.044-1.566-1.664 1.109 2 3c.186.279.499.445.832.445.021 0 .041 0 .062-.002.355-.022.673-.232.832-.551l2.106-4.211v4.764h-3-3z"/><path d="m25 25h2v2h-2z"/><path d="m17 25h6v2h-6z"/><path d="m25 21h2v2h-2z"/><path d="m17 21h6v2h-6z"/><path d="m25 13h2v2h-2z"/><path d="m17 13h6v2h-6z"/><path d="m25 9h2v2h-2z"/><path d="m17 9h6v2h-6z"/></g></svg>