<svg id="Capa_1" enable-background="new 0 0 511.74 511.74" height="512" viewBox="0 0 511.74 511.74" width="512" xmlns="http://www.w3.org/2000/svg"><g><path d="m449.875 27.361h-98.533c-4.142 0-7.5 3.357-7.5 7.5s3.358 7.5 7.5 7.5h98.533c5.142 0 9.325 4.184 9.325 9.325v348.917c0 4.143 3.358 7.5 7.5 7.5s7.5-3.357 7.5-7.5v-348.916c-.001-13.414-10.913-24.326-24.325-24.326z"/><path d="m466.699 425.066c-4.142 0-7.5 3.357-7.5 7.5v54.85c0 5.142-4.183 9.324-9.325 9.324h-388.008c-5.142 0-9.325-4.183-9.325-9.324v-435.729c0-5.142 4.183-9.325 9.325-9.325h98.533c4.142 0 7.5-3.357 7.5-7.5s-3.358-7.5-7.5-7.5h-98.533c-13.413 0-24.325 10.912-24.325 24.325v435.729c0 13.412 10.912 24.324 24.325 24.324h388.009c13.413 0 24.325-10.912 24.325-24.324v-54.85c-.001-4.142-3.359-7.5-7.501-7.5z"/><path d="m167.898 64.861c0-4.143-3.358-7.5-7.5-7.5h-85.357c-4.142 0-7.5 3.357-7.5 7.5v141.063c0 4.143 3.358 7.5 7.5 7.5s7.5-3.357 7.5-7.5v-133.563h77.857c4.143 0 7.5-3.357 7.5-7.5z"/><path d="m67.541 474.241c0 4.143 3.358 7.5 7.5 7.5h361.658c4.142 0 7.5-3.357 7.5-7.5v-409.38c0-4.143-3.358-7.5-7.5-7.5h-85.357c-4.142 0-7.5 3.357-7.5 7.5s3.358 7.5 7.5 7.5h77.857v394.38h-346.658v-228.855c0-4.143-3.358-7.5-7.5-7.5s-7.5 3.357-7.5 7.5z"/><path d="m198.737 112.699h12.435c4.142 0 7.5-3.357 7.5-7.5s-3.358-7.5-7.5-7.5h-12.435c-.462 0-.839-.376-.839-.839v-63.999c0-.462.376-.838.839-.838h31.826c3.049 0 5.795-1.847 6.946-4.671 3.057-7.503 10.264-12.352 18.361-12.352s15.304 4.849 18.361 12.353c1.15 2.824 3.896 4.671 6.946 4.671h31.826c.462 0 .839.376.839.838v63.998c0 .463-.376.839-.839.839h-69.868c-4.142 0-7.5 3.357-7.5 7.5s3.358 7.5 7.5 7.5h69.868c8.733 0 15.839-7.105 15.839-15.839v-63.999c0-8.733-7.105-15.838-15.839-15.838h-27.197c-6.208-10.485-17.472-17.023-29.936-17.023s-23.728 6.538-29.936 17.023h-27.197c-8.733 0-15.839 7.104-15.839 15.838v63.999c0 8.734 7.106 15.839 15.839 15.839z"/><path d="m234.654 64.861c0-4.143-3.358-7.5-7.5-7.5h-5.33c-4.142 0-7.5 3.357-7.5 7.5s3.358 7.5 7.5 7.5h5.33c4.142 0 7.5-3.357 7.5-7.5z"/><path d="m290.917 72.361c4.142 0 7.5-3.357 7.5-7.5s-3.358-7.5-7.5-7.5h-5.33c-4.142 0-7.5 3.357-7.5 7.5s3.358 7.5 7.5 7.5z"/><path d="m167.47 144.836c0-4.143-3.358-7.5-7.5-7.5s-7.5 3.357-7.5 7.5v54.929c0 5.607 4.562 10.17 10.17 10.17h15.61c4.142 0 7.5-3.357 7.5-7.5s-3.358-7.5-7.5-7.5h-10.78z"/><path d="m196.513 159.697v27.876c0 12.33 10.031 22.361 22.361 22.361s22.361-10.031 22.361-22.361v-27.876c0-12.33-10.031-22.361-22.361-22.361s-22.361 10.031-22.361 22.361zm15 0c0-4.059 3.302-7.361 7.361-7.361s7.361 3.303 7.361 7.361v27.876c0 4.059-3.302 7.361-7.361 7.361s-7.361-3.303-7.361-7.361z"/><path d="m293.2 209.935c4.142 0 7.5-3.357 7.5-7.5v-47.829c0-9.522-7.747-17.27-17.27-17.27h-10.183c-9.522 0-17.27 7.747-17.27 17.27v47.829c0 4.143 3.358 7.5 7.5 7.5s7.5-3.357 7.5-7.5v-20.092h14.723v20.092c0 4.142 3.358 7.5 7.5 7.5zm-22.222-42.592v-12.737c0-1.251 1.018-2.27 2.27-2.27h10.183c1.251 0 2.27 1.019 2.27 2.27v12.737z"/><path d="m321.687 137.522c-3.415.775-5.838 3.812-5.838 7.313v57.599c0 4.143 3.358 7.5 7.5 7.5s7.5-3.357 7.5-7.5v-24.583l13.328 27.823c1.267 2.645 3.926 4.261 6.762 4.261.55 0 1.108-.062 1.663-.188 3.416-.775 5.839-3.812 5.839-7.313v-57.599c0-4.143-3.358-7.5-7.5-7.5s-7.5 3.357-7.5 7.5v24.583l-13.328-27.823c-1.513-3.157-5.007-4.848-8.426-4.073z"/><path d="m161.833 243.234h-9.573c-4.142 0-7.5 3.357-7.5 7.5s3.358 7.5 7.5 7.5h9.573c4.142 0 7.5-3.357 7.5-7.5s-3.358-7.5-7.5-7.5z"/><path d="m189.246 250.734c0 4.143 3.358 7.5 7.5 7.5h190.169c4.142 0 7.5-3.357 7.5-7.5s-3.358-7.5-7.5-7.5h-190.169c-4.142 0-7.5 3.358-7.5 7.5z"/><path d="m117.002 288.463c0 4.143 3.358 7.5 7.5 7.5h262.414c4.142 0 7.5-3.357 7.5-7.5s-3.358-7.5-7.5-7.5h-262.414c-4.142 0-7.5 3.357-7.5 7.5z"/><path d="m394.416 326.192c0-4.143-3.358-7.5-7.5-7.5h-262.414c-4.142 0-7.5 3.357-7.5 7.5s3.358 7.5 7.5 7.5h262.414c4.142 0 7.5-3.357 7.5-7.5z"/><path d="m329.52 368.626c-2.354-3.408-7.024-4.262-10.433-1.908l-23.455 16.2c-7.421-14.123-22.231-23.782-39.261-23.782-24.443 0-44.33 19.886-44.33 44.329s19.886 44.33 44.33 44.33 44.33-19.887 44.33-44.33c0-1.887-.132-3.742-.362-5.568l27.273-18.837c3.407-2.354 4.262-7.026 1.908-10.434zm-73.15 64.169c-16.172 0-29.33-13.157-29.33-29.33 0-16.172 13.157-29.329 29.33-29.329 11.925 0 22.204 7.158 26.784 17.4l-21.834 15.08-7.095-8.095c-2.729-3.114-7.469-3.427-10.583-.697-3.115 2.73-3.427 7.469-.697 10.584l11.499 13.12c1.473 1.681 3.547 2.557 5.644 2.557 1.476 0 2.963-.435 4.258-1.329l20.95-14.47c-2.306 13.886-14.396 24.509-28.926 24.509z"/></g></svg>