<svg height="597pt" viewBox="-129 -18 597 597.33256" width="597pt" xmlns="http://www.w3.org/2000/svg"><path d="m202.820312 249.988281c0 22.085938-17.910156 39.996094-40 39.996094-22.085937 0-39.996093-17.910156-39.996093-39.996094 0-22.089843 17.910156-40 39.996093-40 22.089844 0 40 17.910157 40 40zm0 0"/><path d="m162.820312 159.992188c-49.679687.054687-89.941406 40.316406-89.992187 89.996093 0 38.886719 58.996094 129.53125 89.992187 172.988281 31-43.457031 89.996094-134.109374 89.996094-172.988281-.050781-49.679687-40.3125-89.941406-89.996094-89.996093zm0 149.992187c-33.132812 0-59.996093-26.863281-59.996093-59.996094 0-33.132812 26.863281-60 59.996093-60 33.140626 0 60 26.867188 60 60-.035156 33.121094-26.875 59.960938-60 59.996094zm0 0"/><path d="m182.820312 49.996094c0 11.046875-8.953124 20-20 20-11.042968 0-19.996093-8.953125-19.996093-20 0-11.042969 8.953125-19.996094 19.996093-19.996094 11.046876 0 20 8.953125 20 19.996094zm0 0"/><path d="m240.050781 0h-154.457031l-92.761719 55.65625v494.972656c.003907 5.175782 4.199219 9.367188 9.367188 9.371094h321.246093c2.488282 0 4.875-.996094 6.632813-2.757812 1.757813-1.765626 2.738281-4.152344 2.734375-6.640626v-494.945312zm-77.230469 10c22.089844 0 40 17.910156 40 39.996094 0 22.089844-17.910156 40-40 40-22.085937 0-39.996093-17.910156-39.996093-40 0-22.085938 17.910156-39.996094 39.996093-39.996094zm-29.996093 469.972656h-20v-19.996094h20zm49.996093 0h-39.996093v-19.996094h39.996093zm30 0h-20v-19.996094h20zm-42-33.996094c-1.886718 2.539063-4.863281 4.039063-8.027343 4.039063-3.164063 0-6.140625-1.5-8.03125-4.039063-4.125-5.648437-101.933594-138.132812-101.933594-195.988281 0-60.75 49.246094-109.996093 109.992187-109.996093 60.75 0 109.996094 49.246093 109.996094 109.996093 0 57.855469-97.800781 190.339844-101.996094 195.988281zm0 0"/></svg>