<svg id="Layer_1" enable-background="new 0 0 512 512" height="512" viewBox="0 0 512 512" width="512" xmlns="http://www.w3.org/2000/svg"><path d="m392 512h-272c-66.168 0-120-53.832-120-120v-272c0-66.168 53.832-120 120-120h116c11.046 0 20 8.954 20 20s-8.954 20-20 20h-116c-44.112 0-80 35.888-80 80v272c0 44.112 35.888 80 80 80h272c44.112 0 80-35.888 80-80v-113c0-11.046 8.954-20 20-20s20 8.954 20 20v113c0 66.168-53.832 120-120 120zm-171-383c0-11.046-8.954-20-20-20h-101c-11.046 0-20 8.954-20 20s8.954 20 20 20h101c11.046 0 20-8.954 20-20zm212 187c0-11.046-8.954-20-20-20h-117c-11.046 0-20 8.954-20 20s8.954 20 20 20h117c11.046 0 20-8.954 20-20zm-196 0c0-11.046-8.954-20-20-20h-117c-11.046 0-20 8.954-20 20s8.954 20 20 20h117c11.046 0 20-8.954 20-20zm0 80c0-11.046-8.954-20-20-20h-117c-11.046 0-20 8.954-20 20s8.954 20 20 20h117c11.046 0 20-8.954 20-20zm155 0c0-11.046-8.954-20-20-20h-76c-11.046 0-20 8.954-20 20s8.954 20 20 20h76c11.046 0 20-8.954 20-20zm120-270c0-69.477-56.523-126-126-126s-126 56.523-126 126 56.523 126 126 126 126-56.523 126-126zm-40 0c0 47.421-38.58 86-86 86s-86-38.579-86-86 38.58-86 86-86 86 38.579 86 86zm-229 130h-54c-11.046 0-20-8.954-20-20s8.954-20 20-20h54c11.046 0 20 8.954 20 20s-8.954 20-20 20zm-163-22c0 13.807 11.193 25 25 25s25-11.193 25-25-11.193-25-25-25-25 11.193-25 25zm347-70c0 11.046-8.954 20-20 20h-34.418c-9.734 0-19.379-6.407-23.455-15.58-4.217-9.491-2.118-20.268 5.614-28.827 3.219-3.563 6.915-7.179 10.828-11.005 5.744-5.618 17.482-17.1 19.326-22.403-.088-.08-.209-.169-.29-.188-1.509.004-3.377.885-4.083 1.334-3.259 2.304-7.228 3.67-11.522 3.67-11.046 0-20-8.954-20-20 0-6.591 3.202-12.42 8.121-16.063l-.021-.029c2.009-1.488 12.78-8.909 27.548-8.909 22.25 0 40.352 18.078 40.352 40.3 0 14.234-8.374 26.584-18.496 37.7h.496c11.046 0 20 8.954 20 20z"/></svg>